<?xml version="1.0" standalone="no"?>
<!DOCTYPE svg PUBLIC "-//W3C//DTD SVG 20010904//EN"
 "http://www.w3.org/TR/2001/REC-SVG-20010904/DTD/svg10.dtd">
<svg version="1.0" xmlns="http://www.w3.org/2000/svg"
 width="894.000000pt" height="894.000000pt" viewBox="0 0 894.000000 894.000000"
 preserveAspectRatio="xMidYMid meet">
<metadata>
Created by potrace 1.14, written by Peter Selinger 2001-2017
</metadata>
<g transform="translate(0.000000,894.000000) scale(0.100000,-0.100000)"
fill="#000000" stroke="none">
<path d="M7 8933 c-4 -3 -7 -2015 -7 -4470 l0 -4463 4470 0 4470 0 0 4470 0
4470 -4463 0 c-2455 0 -4467 -3 -4470 -7z m4758 -2393 c77 -6 218 -19 313 -30
95 -11 175 -20 177 -20 2 0 70 -201 150 -447 195 -596 215 -657 223 -665 4 -4
111 -28 237 -53 127 -25 237 -47 245 -50 13 -4 27 56 84 344 l69 350 46 -5
c25 -2 133 -11 240 -19 l194 -14 46 -39 c61 -52 93 -100 132 -199 l32 -83 -12
-92 c-13 -98 -48 -399 -137 -1178 -9 -80 -20 -146 -25 -148 -5 -2 17 -28 47
-57 l56 -54 -7 -58 c-4 -32 -11 -59 -16 -61 -20 -8 -7 -28 17 -27 23 0 28 -6
39 -45 14 -53 44 -119 99 -213 l39 -69 -38 -216 -39 -217 -99 -97 c-96 -94
-129 -112 -149 -83 -4 5 -8 -2 -9 -17 -1 -16 -3 -32 -4 -38 -1 -5 -3 -24 -4
-41 l-1 -31 -34 29 c-19 15 -36 36 -39 47 -3 10 -10 15 -16 11 -17 -10 -36 6
-20 17 11 7 9 8 -4 4 -11 -4 -29 2 -44 14 -14 11 -30 20 -35 20 -5 0 -38 13
-73 29 -88 41 -136 56 -315 102 -150 38 -425 89 -482 89 -15 0 -28 5 -28 11 0
6 -7 9 -15 6 -8 -4 -85 0 -172 9 -238 22 -739 44 -998 44 -369 0 -993 -37
-1185 -70 -30 -5 -75 -12 -100 -14 -25 -2 -108 -16 -185 -31 -77 -15 -147 -29
-155 -30 -8 -1 -22 -5 -30 -8 -8 -3 -44 -13 -80 -22 -88 -23 -140 -40 -221
-75 -38 -16 -69 -26 -69 -22 0 4 -4 2 -8 -4 -4 -6 -22 -19 -41 -29 -28 -14
-35 -15 -43 -3 -8 10 -9 9 -4 -4 6 -21 -47 -63 -65 -52 -7 4 -9 3 -6 -3 4 -6
-2 -18 -13 -28 -21 -19 -22 -16 -32 50 -2 12 -12 21 -27 23 -14 2 -64 43 -118
96 -86 83 -96 97 -104 142 -19 94 -39 210 -54 302 l-16 93 48 87 c61 111 92
181 93 210 0 12 5 22 11 22 6 0 8 8 5 18 -2 9 -8 36 -11 60 -7 42 -6 44 52
102 32 33 65 60 73 60 10 0 11 3 4 8 -11 7 -61 401 -169 1354 l-16 138 35 63
c36 64 128 164 182 197 24 15 68 20 254 29 123 5 225 9 226 8 2 -3 124 -680
124 -691 0 -4 6 -6 13 -3 7 2 114 21 237 42 124 21 229 41 233 45 4 4 30 69
56 146 27 76 81 229 120 339 40 110 102 283 138 385 35 102 70 201 77 220 16
42 17 43 270 65 378 33 613 40 831 25z"/>
<path d="M4208 4573 c6 -2 18 -2 25 0 6 3 1 5 -13 5 -14 0 -19 -2 -12 -5z"/>
<path d="M4358 4573 c23 -2 61 -2 85 0 23 2 4 4 -43 4 -47 0 -66 -2 -42 -4z"/>
<path d="M4587 4573 c18 -2 50 -2 70 0 21 2 7 4 -32 4 -38 0 -55 -2 -38 -4z"/>
<path d="M3978 4563 c7 -3 16 -2 19 1 4 3 -2 6 -13 5 -11 0 -14 -3 -6 -6z"/>
<path d="M4888 4563 c6 -2 18 -2 25 0 6 3 1 5 -13 5 -14 0 -19 -2 -12 -5z"/>
<path d="M5488 4523 c6 -2 18 -2 25 0 6 3 1 5 -13 5 -14 0 -19 -2 -12 -5z"/>
<path d="M3208 4493 c7 -3 16 -2 19 1 4 3 -2 6 -13 5 -11 0 -14 -3 -6 -6z"/>
<path d="M3108 4483 c6 -2 18 -2 25 0 6 3 1 5 -13 5 -14 0 -19 -2 -12 -5z"/>
<path d="M5818 4483 c7 -3 16 -2 19 1 4 3 -2 6 -13 5 -11 0 -14 -3 -6 -6z"/>
<path d="M2888 4443 c6 -2 18 -2 25 0 6 3 1 5 -13 5 -14 0 -19 -2 -12 -5z"/>
<path d="M2730 4410 c-20 -6 -21 -8 -5 -8 11 0 29 3 40 8 25 11 -1 11 -35 0z"/>
<path d="M2796 4401 c-4 -5 3 -7 14 -4 23 6 26 13 6 13 -8 0 -17 -4 -20 -9z"/>
<path d="M2678 4393 c7 -3 16 -2 19 1 4 3 -2 6 -13 5 -11 0 -14 -3 -6 -6z"/>
<path d="M4680 4306 c0 -2 8 -10 18 -17 15 -13 16 -12 3 4 -13 16 -21 21 -21
13z"/>
<path d="M6580 4275 c14 -8 30 -14 35 -14 6 0 -1 6 -15 14 -14 8 -29 14 -35
14 -5 0 1 -6 15 -14z"/>
<path d="M2315 4240 c-3 -6 1 -7 9 -4 18 7 21 14 7 14 -6 0 -13 -4 -16 -10z"/>
<path d="M4780 4205 c13 -14 26 -25 28 -25 3 0 -5 11 -18 25 -13 14 -26 25
-28 25 -3 0 5 -11 18 -25z"/>
<path d="M6727 4190 c3 -11 9 -20 15 -20 5 0 4 9 -2 20 -6 11 -12 20 -14 20
-2 0 -2 -9 1 -20z"/>
<path d="M4940 4046 c0 -2 8 -10 18 -17 15 -13 16 -12 3 4 -13 16 -21 21 -21
13z"/>
<path d="M6851 4024 c0 -11 3 -14 6 -6 3 7 2 16 -1 19 -3 4 -6 -2 -5 -13z"/>
<path d="M5000 3986 c0 -2 8 -10 18 -17 15 -13 16 -12 3 4 -13 16 -21 21 -21
13z"/>
<path d="M5009 3903 c-13 -16 -12 -17 4 -4 16 13 21 21 13 21 -2 0 -10 -8 -17
-17z"/>
<path d="M6842 3880 c0 -14 2 -19 5 -12 2 6 2 18 0 25 -3 6 -5 1 -5 -13z"/>
<path d="M4789 3683 c-13 -16 -12 -17 4 -4 9 7 17 15 17 17 0 8 -8 3 -21 -13z"/>
<path d="M6811 3644 c0 -11 3 -14 6 -6 3 7 2 16 -1 19 -3 4 -6 -2 -5 -13z"/>
<path d="M4246 3553 c-6 -14 -5 -15 5 -6 7 7 10 15 7 18 -3 3 -9 -2 -12 -12z"/>
<path d="M4626 3525 c-11 -8 -15 -15 -9 -15 6 0 16 7 23 15 16 19 11 19 -14 0z"/>
<path d="M4326 3487 c3 -10 9 -15 12 -12 3 3 0 11 -7 18 -10 9 -11 8 -5 -6z"/>
<path d="M2122 3440 c0 -19 2 -27 5 -17 2 9 2 25 0 35 -3 9 -5 1 -5 -18z"/>
<path d="M2141 3324 c0 -11 3 -14 6 -6 3 7 2 16 -1 19 -3 4 -6 -2 -5 -13z"/>
<path d="M6753 3285 c-3 -9 -3 -18 -1 -21 3 -3 8 4 11 16 6 23 -1 27 -10 5z"/>
<path d="M5758 3233 c6 -2 18 -2 25 0 6 3 1 5 -13 5 -14 0 -19 -2 -12 -5z"/>
<path d="M6742 3170 c0 -14 2 -19 5 -12 2 6 2 18 0 25 -3 6 -5 1 -5 -13z"/>
<path d="M2196 2995 c4 -8 8 -15 10 -15 2 0 4 7 4 15 0 8 -4 15 -10 15 -5 0
-7 -7 -4 -15z"/>
<path d="M2221 2924 c0 -11 3 -14 6 -6 3 7 2 16 -1 19 -3 4 -6 -2 -5 -13z"/>
</g>
</svg>
